<?xml version="1.0" encoding="utf-8" ?>
<svg xmlns="http://www.w3.org/2000/svg" xmlns:xlink="http://www.w3.org/1999/xlink" width="1024" height="1024">
	<path fill="#FEFEFE" d="M0 0L1024 0L1024 1024L0 1024L0 0Z"/>
	<path fill="#191818" d="M847.793 329.133C859.182 328.383 868.927 331.805 878.441 338.012C900.262 352.247 916.405 378.42 921.573 403.734C924.513 418.138 925.144 435.879 916.565 448.614C911.54 456.074 905.093 459.346 896.456 460.961C885.454 462.018 875.605 458.133 866.658 451.929C843.637 435.967 825.63 406.761 820.834 379.246C818.646 366.691 819.306 352.054 826.936 341.312C832.131 333.999 839.189 330.569 847.793 329.133Z"/>
	<path fill="#FEFEFE" d="M846.893 331.125C858.822 329.76 870.161 334.528 879.708 341.393C901.182 356.836 916.055 382.695 920.224 408.656C922.331 421.773 922.438 437.131 914.171 448.307C909.572 454.525 903.806 457.694 896.28 458.872C886.542 459.917 877.685 456.645 869.604 451.392C846.788 436.562 828.676 408.029 823.294 381.585C820.73 368.984 820.787 354.206 828.19 343.135C832.609 336.526 839.192 332.584 846.893 331.125Z"/>
	<path fill="#191818" d="M59.411 779.582C50.4955 733.539 52.0089 683.125 52.313 636.262C52.4863 609.546 51.7081 579.188 56.061 552.865C57.9997 541.141 60.9086 529.678 67.6253 519.723C80.7738 500.234 96.1337 502.328 106.289 476.502C122.306 435.765 112.031 397.31 116.359 355.735C127.958 244.309 205.662 147.437 317.87 126.088C343.14 121.28 368.676 122.086 394.258 122.139L468.383 122.149L516.536 122.223C526.247 122.251 536.345 121.731 545.987 122.986C554.634 124.112 562.499 127.383 569.702 132.259C595.695 149.853 609.757 183.215 617.943 212.404C623.589 232.539 627.257 252.296 640.371 269.296C660.628 295.556 681.272 299.302 712.151 304.479C719.941 305.785 728.356 306.857 735.643 309.997C741.854 312.673 747.721 317.125 752.508 321.858C767.273 336.456 771.392 356.232 776.166 375.588C778.91 386.713 781.591 397.867 784.972 408.819Q786.905 414.988 789.165 421.046Q791.424 427.103 794.003 433.032Q796.582 438.96 799.473 444.743Q802.364 450.525 805.559 456.146C820.348 481.696 843.663 503.888 866.113 522.802C872.581 528.251 879.475 533.191 885.864 538.729C927.729 575.019 955.975 628.168 966.294 682.286L966.404 682.867C972.849 717.137 972.008 745.124 969.071 779.638C975.663 779.715 982.418 779.522 988.977 780.13L989.27 779.618L989.614 780.693L990.388 780.631L989.784 780.247L990.929 780.516L990.479 781.166C984.112 782.034 977.066 781.559 970.613 781.623C967.01 782.765 963.332 793.16 961.519 796.826C953.286 813.466 939.098 831.455 925.837 844.396C894.744 874.74 855.575 892.198 813.123 899.607C784.145 904.665 748.975 902.189 719.277 902.087L574.566 901.976L273.684 901.801L123.724 901.981C101.514 901.997 79.2555 902.414 57.0519 902.15L56.9458 782.158C49.403 782.177 41.1877 782.825 33.7304 781.808L31.8905 781.154L31.6333 780.553C33.7632 778.571 54.7775 779.624 59.411 779.582Z"/>
	<path fill="#FEFEFE" d="M575.726 278.369C576.425 282.626 576.058 287.566 576.048 291.898L575.946 315.632L569.207 312.011L564.962 309.778C568.422 299.268 572.191 288.855 575.726 278.369Z"/>
	<path fill="#FEFEFE" d="M441.983 734.349C448.346 735.359 455.278 736.578 460.853 740.027C463.117 741.428 465.159 743.368 465.632 746.1C466.184 749.282 464.387 751.933 462.642 754.399C461.525 755.536 460.321 756.609 459.164 757.705C456.645 750.434 453.241 747.773 446.438 744.462L441.983 734.349Z"/>
	<path fill="#F8C684" d="M457.442 762.503C458.622 764.445 466.053 798.67 466.951 803.552L461.038 795.678C455.616 788.557 449.916 781.313 445.848 773.315C445.092 771.827 443.887 769.793 444.433 768.103C446.187 767.041 448.668 767.596 450.661 767.387C453.436 767.096 455.257 765.037 456.97 763.057L457.442 762.503Z"/>
	<path fill="#FEFEFE" d="M630.506 509.279L660.268 509.349Q660.144 526.236 660.275 543.122L659.76 543.207C651.737 534.425 641.407 528.043 630.627 523.257C630.471 518.609 630.542 513.931 630.506 509.279Z"/>
	<path fill="#F8C684" d="M410.029 678.483C410.315 678.466 410.602 678.446 410.888 678.433C412.701 678.351 414.286 678.488 415.618 679.87C417.046 681.351 441.876 738.803 441.867 741.159C440.399 741.179 439.466 740.49 438.194 739.827C433.198 737.266 428.276 734.676 423.458 731.788C420.572 722.912 404.315 690.141 405.124 683.887C405.46 681.292 408.038 679.757 410.029 678.483Z"/>
	<path fill="#FEFEFE" d="M199.468 714.379C206.5 713.68 214.372 714.472 221.47 714.572L268.809 715.289C272.866 718.862 276.567 722.757 280.313 726.649C275.552 726.859 270.774 726.905 266.009 727.024Q225.188 727.181 184.369 726.78C189.524 722.802 194.415 718.487 199.468 714.379Z"/>
	<path fill="#D7D0CB" d="M595.371 484.969L629.379 485.049Q629.505 503.828 629.418 522.608C618.972 517.93 606.531 518.24 595.321 518.046Q595.263 501.507 595.371 484.969Z"/>
	<path fill="#FEFEFE" d="M190.126 750.124C218.518 749.514 248.792 749.499 277.163 750.217C277.209 755.105 276.916 760.008 276.722 764.891Q233.876 764.508 191.03 764.883C190.587 759.98 190.403 755.039 190.126 750.124Z"/>
	<path fill="#FEFEFE" d="M180.798 729.028C215.256 728.655 249.9 728.525 284.357 729.049C285 735.221 284.83 741.559 284.715 747.756C270.402 747.306 255.98 747.643 241.656 747.635Q211.155 747.381 180.66 748.035Q180.616 738.531 180.798 729.028Z"/>
	<path fill="#FEFEFE" d="M207.545 502.996L219.975 503.041L220.146 673.622L207.563 673.67L207.545 502.996Z"/>
	<path fill="#FEFEFE" d="M547.92 237.233Q561.947 241.292 576.055 245.06C575.973 253.891 577.132 263.537 575.969 272.262C574.725 281.604 567.254 299.774 563.961 309.501Q561.054 308.378 558.127 307.31C548.2 303.619 537.456 301.648 527.057 299.824Q536.813 268.303 547.92 237.233Z"/>
	<path fill="#D7D0CB" d="M661.485 499.852Q677.958 499.945 694.429 499.75C693.701 535.851 694.837 572.066 694.456 608.19C692.013 602.87 690.212 597.175 688.038 591.735C680.556 573.016 674.353 560.896 661.473 545.131C661.049 530.079 661.454 514.916 661.485 499.852Z"/>
	<path fill="#FEFEFE" d="M409.142 277.901C412.792 281.372 437.968 341.972 443.814 352.417C440.706 363.178 435.364 373.67 429.949 383.45C427.309 387.972 424.469 392.279 421.503 396.591L408.815 396.502C409.111 356.99 408.225 317.4 409.142 277.901Z"/>
	<path fill="#FEFEFE" d="M439.07 248.941C441.366 249.797 462.198 298.689 465.247 305.205C455.587 308.588 446.841 313.017 438.397 318.821C441.353 319.812 444.34 320.652 446.333 323.2C448.868 326.44 448.556 330.622 447.941 334.452C447.462 337.435 446.044 348.567 443.667 350.291L442.983 349.29C435.149 330.875 426.721 312.745 418.467 294.516C413.81 284.232 407.6 273.062 405.187 262.011C416.603 258.413 428.088 253.695 439.07 248.941Z"/>
	<path fill="#FEFEFE" d="M695.58 531.499L721.937 531.51C721.376 565.304 721.959 599.23 721.984 633.039L722.124 659.563C722.144 664.48 722.454 669.657 721.868 674.537C720.281 674.582 718.963 674.671 717.45 674.08C713.283 665.512 710.677 655.388 707.483 646.379C704.671 638.448 696.625 618.866 695.622 611.36C694.558 603.394 695.458 594.228 695.479 586.101L695.58 531.499Z"/>
	<path fill="#E68658" d="M339.468 846.747C405.35 845.948 471.303 846.451 537.191 846.562L618.333 846.764C629.02 846.822 639.881 846.381 650.537 846.78C652.641 846.859 655.075 847.058 656.95 848.119C657.823 848.613 658.639 849.456 658.856 850.446C659.304 852.489 658.229 853.948 657.16 855.57C654.964 856.8 649.285 856.081 646.625 856.048L518.043 855.996C517.769 856.464 517.755 856.51 517.392 857.011C515.469 859.669 511.986 861.277 508.79 861.723C502.405 862.614 497.837 859.979 492.93 856.364C472.531 855.425 451.807 856.108 431.37 856.09Q381.88 855.902 332.391 856.226C332.529 853.071 332.891 850.085 333.444 846.977L339.468 846.747Z"/>
	<path fill="#FEFEFE" d="M261.559 830.247L268.856 830.294L265.051 877.113Q234.463 876.909 203.875 877.121C202.731 877.174 201.883 877.109 200.774 876.821C199.028 873.72 196.818 836.591 196.394 830.368L261.559 830.247Z"/>
	<path fill="#FEFEFE" d="M723.109 551.896C724.951 554.065 776.652 669.967 777.322 674.259C759.322 674.106 741.279 674.501 723.272 674.52C723.419 633.651 722.672 592.764 723.109 551.896Z"/>
	<path fill="#FEFEFE" d="M283.238 269.342C284.781 274.693 283.734 295.535 283.745 302.298L283.72 396.541L230.084 396.482L229.574 395.764C234.811 385.681 238.914 375.025 243.442 364.609C257.156 333.059 269.33 300.782 283.238 269.342Z"/>
	<path fill="#FEFEFE" d="M643.706 277.261C646.263 279.722 648.906 282.13 651.196 284.846C651.673 290.144 669.633 327.986 673.103 335.751L699.548 396.066L643.806 395.959C643.554 383.786 643.823 371.567 643.76 359.386L643.706 277.261Z"/>
	<path fill="#D7D0CB" d="M652.615 286.22C666.969 296.147 679.224 300.526 696.145 304.106C698.334 307.061 700.104 310.594 701.559 313.965C704.933 322.86 709.659 331.614 713.708 340.25Q724.209 362.713 733.913 385.532C726.656 388.391 719.544 392.771 712.098 394.946L711.211 395.198C707.689 396.232 704.231 396.031 700.594 395.967C692.672 379.512 686.045 362.327 678.62 345.637C674.647 336.706 653.535 292.43 652.615 286.22Z"/>
	<path fill="#FEFEFE" d="M758.208 397.079C765.231 397.334 772.249 397.063 779.27 397.194Q782.654 407.918 785.921 418.679C727.286 418.019 668.467 418.088 609.83 418.635C613.423 411.777 615.643 405.108 616.633 397.424Q663.388 397.112 710.142 397.426C726.077 397.428 742.317 398.045 758.208 397.079Z"/>
	<path fill="#FEFEFE" d="M577.405 221.701L610.062 221.562C610.06 267.569 610.628 313.675 609.868 359.672C601.641 341.331 592.974 329.174 577.265 316.636C577.945 285.006 576.796 253.331 577.405 221.701Z"/>
	<path fill="#FEFEFE" d="M697.59 304.276C720.26 307.25 740.733 309.191 755.715 328.57C769.123 345.914 773.777 374.552 778.922 396.025C764.901 395.976 750.294 395.122 736.321 396.092C728.594 395.729 720.736 396.025 712.991 395.998C720.297 392.582 727.576 389.065 735.067 386.071C732.587 378.318 728.558 370.641 725.221 363.211L702.204 313.269C700.742 310.259 699.372 307.109 697.59 304.276Z"/>
	<path fill="#FEFEFE" d="M616.162 243.716L623.835 242.649C626.73 250.271 629.692 258.126 634.259 264.929C636.899 268.863 641.055 272.698 642.972 276.958C641.595 284.307 642.51 303.43 642.504 312.192L642.461 395.972L616.575 396.115C616.519 389.483 616.358 382.243 614.877 375.767C613.73 370.756 611.338 366.186 611.085 360.975C610.382 346.498 611.185 331.713 611.295 317.207L611.369 244.222L616.162 243.716Z"/>
	<path fill="#FEFEFE" d="M284.88 244.992L313.935 244.962L314.145 350.644L314.251 379.568C314.271 385.095 314.722 391.056 313.937 396.52L284.957 396.526L284.936 294.92C284.897 278.314 284.351 261.585 284.88 244.992Z"/>
	<path fill="#F8C684" d="M191.27 766.961C219.703 767.443 248.236 766.905 276.683 767.014C276.488 774.166 275.64 781.365 275.11 788.504Q273.965 805.698 272.62 822.878C272.587 824.518 272.648 825.986 271.963 827.516C267.975 828.861 204.776 827.993 195.747 828.001Q193.096 797.511 191.27 766.961Z"/>
	<path fill="#FEFEFE" d="M351.082 237.599C361.685 237.528 372.311 237.941 382.908 237.595C382.387 243.836 382.637 250.181 382.639 256.442L382.623 288.073L382.705 396.386C372.334 397.333 361.254 396.533 350.815 396.502L351.082 237.599Z"/>
	<path fill="#D7D0CB" d="M750.864 525.034C752.881 527.127 807.016 651.923 812.258 665.177C803.613 667.847 794.486 672.614 785.625 674.019L778.737 674.221L736.95 579.123C733.065 570.174 725.543 557.398 723.124 548.602C722.291 545.573 722.869 541.016 722.918 537.81C731.877 532.79 741.709 529.631 750.864 525.034Z"/>
	<path fill="#D7D0CB" d="M249.399 250.498C253.757 252.211 281.268 261.764 283.062 263.918C283.034 266.023 282.44 268.016 281.742 269.989C278.41 279.401 274.173 288.651 270.357 297.892Q258.546 326.658 246.234 355.213Q240.427 368.913 234.428 382.53C232.792 386.272 231.443 390.614 229.266 394.073C228.462 395.35 228.093 395.791 226.625 396.131C209.209 396.171 207.772 394.635 191.916 387.176C197.129 371.831 205.238 355.5 211.528 340.348C223.975 310.367 236.053 280.086 249.399 250.498Z"/>
	<path fill="#FEFEFE" d="M479.531 482.648C486.504 486.865 492.024 490.819 499.984 493.082C518.849 498.443 536.715 495.287 553.552 485.849L553.621 524.122C553.632 531.792 554.331 540.122 552.934 547.658C551.977 552.823 550.075 557.122 547.394 561.605C546.108 563.374 544.746 565.034 543.209 566.59Q542.577 567.219 541.914 567.817Q541.252 568.414 540.561 568.979Q539.871 569.543 539.153 570.073Q538.436 570.604 537.694 571.098Q536.951 571.593 536.186 572.051Q535.421 572.509 534.634 572.929Q533.847 573.349 533.041 573.731Q532.234 574.112 531.41 574.454Q530.586 574.795 529.747 575.097Q528.907 575.398 528.054 575.658Q527.2 575.918 526.335 576.136Q525.471 576.354 524.596 576.53Q523.722 576.706 522.839 576.839Q521.957 576.972 521.07 577.062Q520.183 577.152 519.292 577.198Q518.401 577.245 517.509 577.248C507.553 577.25 497.68 573.522 490.619 566.435Q489.774 565.591 488.987 564.693Q488.199 563.796 487.472 562.848Q486.745 561.901 486.081 560.909Q485.418 559.916 484.82 558.882Q484.223 557.848 483.695 556.777Q483.167 555.706 482.709 554.603Q482.252 553.5 481.868 552.369Q481.484 551.238 481.175 550.085C478.561 540.044 479.976 528.112 479.903 517.746C479.821 506.04 479.449 494.359 479.531 482.648Z"/>
	<path fill="#D7D0CB" d="M314.885 216.23C326.598 216.107 338.37 215.863 350.071 216.461C349.747 238.532 350.047 260.644 350.06 282.719L349.961 396.508L315.351 396.565C315.84 336.47 314.909 276.328 314.885 216.23Z"/>
	<path fill="#FEFEFE" d="M172.524 480.555L206.431 480.511L206.513 673.634Q189.51 673.709 172.509 673.501L172.524 480.555Z"/>
	<path fill="#FEFEFE" d="M371.987 716.145C377.2 715.726 382.63 716.071 387.681 717.475C398.541 720.491 409.693 727.548 419.566 732.854C429.456 738.17 439.484 743.328 449.232 748.898C452.314 750.659 455.722 752.594 456.567 756.338C456.953 758.05 456.588 759.729 455.637 761.189C453.984 763.726 450.971 765.554 447.899 765.27C441.36 764.664 431.287 757.652 425.282 754.534C421.232 752.432 392.413 738.425 390.223 738.895L390.079 739.958C390.486 740.557 390.87 740.983 391.503 741.351C395.971 743.952 400.961 745.991 405.646 748.197C417.673 753.86 430.057 759.261 441.387 766.244C441.448 768.324 441.43 770.159 440.814 772.167C439.854 775.294 438.431 778.184 435.325 779.638C433.264 780.604 431.055 780.637 428.859 780.175C425.242 779.414 421.651 777.336 418.299 775.793C412.278 773.02 406.111 770.589 400.051 767.907C396.448 766.312 392.59 763.996 388.817 762.979C387.43 762.605 386.897 762.729 385.692 763.436L385.581 764.28C386.985 765.729 397.099 769.342 399.783 770.525C406.989 773.586 423.681 782.418 430.774 782.971C432.771 783.127 434.594 782.431 436.452 781.79C433.622 786.493 429.995 797.245 425.218 799.75C418.665 803.188 388.885 785.992 382.934 788.119L382.571 789.141L383.206 789.889C397.009 793.86 410.088 800.931 424.265 803.533L423.306 805.352C420.958 809.771 418.07 816.85 412.799 818.271C411.173 818.71 409.444 818.605 407.793 818.38C403.103 817.744 398.342 816.233 393.696 815.26C385.423 813.529 376.802 812.267 368.711 809.868C365.788 809.001 362.827 807.813 360.249 806.173C351.087 800.344 345.985 788.995 343.967 778.68C340.818 762.583 344.816 742.276 353.996 728.656C358.394 722.132 364.118 717.659 371.987 716.145Z"/>
	<path fill="#FEFEFE" d="M510.327 347.806C517.401 364.244 528.249 390.79 548.526 392.949C557.668 393.922 567.108 391.662 576.3 391.818C581.295 391.902 586.35 393.052 590.257 396.325C595.243 400.502 597.963 407.857 598.298 414.242C598.579 419.597 597.516 424.55 593.696 428.47C588.677 433.62 581.828 434.032 575.097 434.026C575.414 425.765 576.902 415.651 574.754 407.676L573.844 407.974L574.266 406.962L574.799 408.079L573.73 408.372C571.226 427.14 574.714 440.993 568.527 460.267C563.534 473.151 556.557 482.748 543.623 488.518C529.421 494.853 510.914 494.967 496.455 489.368C484.664 484.802 477.297 477.403 470.725 466.85C465.436 455.761 463.598 442.388 462.606 430.216C462.259 425.967 462.872 410.813 461.26 407.802C459.385 414.366 460.799 426.094 460.908 433.109C457.181 433.098 453.494 432.759 450.07 431.18C445.997 429.302 442.878 426.022 441.351 421.785C439.431 416.458 439.551 408.303 442.158 403.24C449.278 389.414 464.276 396.354 475.9 392.185C493.503 385.87 502.995 363.43 510.327 347.806Z"/>
	<path fill="#191818" d="M494.356 401.312C496.334 401.557 498.062 401.81 499.495 403.318C500.928 404.828 501.547 406.77 501.474 408.831C501.354 412.171 500.029 414.308 497.693 416.569C495.959 416.548 494.636 416.394 493.298 415.214C491.648 413.759 490.994 411.573 491.002 409.429C491.015 406.094 492.06 403.671 494.356 401.312Z"/>
	<path fill="#191818" d="M541.516 402.369C541.654 402.378 541.792 402.38 541.93 402.396C543.825 402.615 545.327 403.263 546.533 404.767C547.965 406.553 548.428 408.771 548.122 411.015C547.697 414.137 546.447 415.783 544.052 417.717C543.423 417.688 543.134 417.686 542.478 417.604C540.887 417.405 539.889 416.749 538.98 415.465C537.408 413.245 537.106 410.659 537.647 408.041C538.209 405.325 539.266 403.932 541.516 402.369Z"/>
	<path fill="#191818" d="M517.977 403.592C519.358 403.605 520.493 403.497 521.689 404.305C522.618 409.126 523.7 433.621 522.724 438.064C521.042 438.058 519.448 438.242 518.116 437.156C517.498 432.109 516.62 407.326 517.977 403.592Z"/>
	<path fill="#191818" d="M508.038 456.284C511.173 456.257 512.189 457.494 514.769 459.034C518.899 461.498 524.188 458.468 528.449 457.401C530.171 456.97 530.953 456.857 532.487 457.776C532.751 460.136 531.508 461.344 530.155 463.18C528.383 464.736 526.662 466.147 524.399 466.917C520.606 468.206 516.548 467.609 513.024 465.834C510.612 464.619 508.036 462.571 507.347 459.822C506.926 458.143 507.141 457.73 508.038 456.284Z"/>
	<path fill="#FEFEFE" d="M443.169 774.826C448.55 783.415 464.271 806.05 470.937 812.317C470.404 800.742 466.34 788.256 463.664 776.966C482.17 776.382 500.681 776.583 519.193 776.442L603.697 775.74C609.32 781.972 614.119 789.881 619.123 796.681C630.875 812.648 642.553 828.608 654.541 844.4L578.375 844.303L337.437 844.429Q350.307 827.761 362.456 810.561C371.37 813.57 380.662 815.204 389.859 817.105C397.381 818.66 404.933 820.438 412.541 821.481C414.732 820.61 416.81 819.608 418.418 817.831C421.852 814.038 423.869 809.068 426.38 804.649L443.169 774.826Z"/>
	<path fill="#FEFEFE" d="M609.064 419.914Q697.818 419.366 786.573 419.884C803.499 466.876 827.867 492.854 865.262 524.709C871.723 530.212 878.818 534.986 885.109 540.68C937.891 588.462 966.717 656.425 969.427 727.128C970.101 744.732 968.599 762.025 966.977 779.531L753.159 779.29Q743.872 750.945 734.101 722.763C731.394 714.753 728.346 706.735 725.971 698.628L803.606 698.496C811.384 698.494 847.454 699.508 852.026 697.747C835.765 696.291 818.798 697.206 802.469 697.197C776.824 697.184 751.09 696.792 725.454 697.31C722.525 690.338 720.119 683.087 717.912 675.855L811.662 675.764C823.57 675.724 840.237 676.931 851.547 675.667L851.808 675.157C846.255 673.752 839.276 674.54 833.509 674.51C818.594 674.432 803.519 674.95 788.628 674.407C796.906 671.583 805.548 669.082 813.636 665.79C808.678 652.756 802.451 640.05 796.897 627.248C781.957 592.807 766.461 558.591 751.769 524.047C742.098 527.944 732.579 532.135 723.029 536.315L722.889 530.29Q709.197 530.174 695.504 530.268C695.476 519.722 695.349 509.168 695.46 498.623Q677.928 498.906 660.396 498.592L660.281 508.188L630.496 508.117Q630.334 496.054 630.366 483.991L594.285 483.929C594.074 495.289 594.454 506.658 594.237 518.011L555.844 518C555.847 506.707 556.001 495.386 555.783 484.096C562.519 477.569 566.455 471.125 570.833 462.899C592.234 459.925 588.212 446.42 596.917 432.588C599.168 429.012 605.744 424.085 609.064 419.914Z"/>
	<path fill="#D7D0CB" d="M611.526 781.767L970.613 781.623C967.01 782.765 963.332 793.16 961.519 796.826C953.286 813.466 939.098 831.455 925.837 844.396C894.744 874.74 855.575 892.198 813.123 899.607C784.145 904.665 748.975 902.189 719.277 902.087L574.566 901.976L273.684 901.801L123.724 901.981C101.514 901.997 79.2555 902.414 57.0519 902.15L56.9458 782.158C49.403 782.177 41.1877 782.825 33.7304 781.808C40.6108 781.37 47.5977 781.644 54.4958 781.651L87.1026 781.682L189.472 781.944L194.638 839.375C195.811 852.662 196.583 866.025 198.362 879.248C221.354 879.054 244.491 878.809 267.472 879.484C267.929 870.717 269.71 836.967 271.782 830.412C272.041 830.336 272.302 830.266 272.559 830.185C273.342 829.937 273.766 829.741 274.409 829.269C275.817 824.927 275.532 818.872 275.874 814.25L278.216 781.961L319.518 781.962C326.935 781.975 334.769 781.473 342.115 782.341C346.149 793.961 349.865 802.034 360.186 809.26C352.067 820.775 343.411 835.315 333.046 844.783L330.8 846.839C330.26 850.833 329.844 854.694 330.04 858.73Q410.725 858.238 491.411 858.736C496.9 862.396 502.613 865.39 509.462 864.022C513.806 863.154 516.943 860.982 520.438 858.462C552.038 858.103 583.674 858.544 615.278 858.567C627.509 858.575 642.756 859.394 654.67 858.605C656.416 858.49 658.601 858.44 659.888 857.073C661.426 855.437 661.792 852.58 661.523 850.439C661.391 849.385 616.47 789.166 611.526 781.767Z"/>
	<path fill="#475595" d="M555.992 520.301C579.624 520.559 615.772 517.337 636.11 528.343C650.427 536.091 662.789 548.307 671.344 562.112C681.213 578.038 687.11 596.524 693.459 614.038Q704.95 645.424 715.686 677.076C727.369 711.123 739.996 744.977 750.205 779.505C715.976 779.009 681.684 779.423 647.449 779.502C648.036 746.812 647.393 714.046 647.501 681.344L647.877 645.576C647.908 639.801 648.242 633.741 647.66 628.002L646.715 627.314L646.189 627.626C645.476 629.193 645.321 630.715 645.267 632.43C644.787 647.496 645.355 662.789 645.226 677.892C644.937 711.734 644.481 745.721 645.301 779.55Q627.814 779.483 610.328 779.609C608.598 777.315 606.969 775.358 604.744 773.516C579.853 773.2 554.859 773.881 529.959 774.013Q496.409 774.486 462.855 774.596Q461.339 767.804 460.191 760.941C464.782 756.958 467.184 752.367 468.806 746.588C468.115 744.696 467.389 742.991 466.057 741.45C460.316 734.805 449.324 732.705 441.035 731.878C435.55 720.352 430.775 708.172 425.685 696.443C423.479 691.357 421.975 685.793 419.223 680.978C418.174 679.144 416.925 677.593 414.988 676.659Q414.617 676.48 414.23 676.339Q413.842 676.198 413.443 676.097Q413.043 675.996 412.635 675.936Q412.228 675.876 411.816 675.858Q411.404 675.839 410.993 675.862Q410.582 675.885 410.175 675.95Q409.768 676.014 409.369 676.12Q408.971 676.225 408.585 676.37Q408.154 676.529 407.743 676.732Q407.332 676.935 406.944 677.18Q406.557 677.426 406.197 677.711Q405.838 677.996 405.51 678.318Q405.183 678.639 404.891 678.993Q404.6 679.348 404.348 679.731Q404.095 680.114 403.885 680.522Q403.674 680.929 403.508 681.357C402.691 683.414 402.689 685.62 403.117 687.767C404.274 693.575 407.397 699.338 409.678 704.794Q414.96 717.483 420.108 730.227Q405.56 722.084 390.011 716.069C391.348 707.201 390.75 697.748 390.709 688.782L390.544 648.883C390.496 642.041 391.818 632.984 390.173 626.441L389.426 626.052L388.342 626.525C387.062 630.395 388.016 704.747 388.047 714.722C381.628 713.721 374.561 712.652 368.174 714.387C359.178 716.83 353.689 723.502 349.355 731.278C346.916 729.041 344.424 726.929 341.526 725.302C332.745 720.371 321.925 719.355 312.277 722.065C311.419 722.962 311.384 722.65 311.403 724.013L312.225 724.407C327.682 721.411 335.899 724.497 348.794 732.668C341.54 747.489 339.36 763.1 341.539 779.367C321.736 779.973 301.76 779.56 281.942 779.51C287.77 764.235 291.908 748.12 297.364 732.672C307.813 703.092 320.257 674.135 331.675 644.915Q341.54 619.289 352.012 593.904C355.654 584.912 358.914 575.617 363.192 566.912C365.978 561.241 369.56 555.582 373.66 550.768C389.577 532.077 411.011 522.695 435.183 520.702C440.198 520.214 445.457 520.476 450.505 520.472L477.481 520.472C477.81 538.523 474.344 552.951 488.162 567.478C495.967 575.684 506.282 579.494 517.498 579.621Q518.435 579.634 519.372 579.601Q520.309 579.568 521.243 579.488Q522.177 579.409 523.106 579.283Q524.035 579.158 524.957 578.986Q525.878 578.815 526.79 578.598Q527.702 578.381 528.602 578.119Q529.502 577.857 530.388 577.551Q531.274 577.245 532.144 576.895Q533.014 576.546 533.865 576.153Q534.717 575.761 535.548 575.327Q536.379 574.893 537.187 574.419Q537.996 573.944 538.78 573.43Q539.564 572.916 540.321 572.364Q541.079 571.812 541.808 571.223Q542.537 570.634 543.236 570.01Q543.936 569.385 544.603 568.727C558.064 555.223 556.026 537.785 555.992 520.301Z"/>
	<path fill="#191818" d="M361.738 652.628L363.716 653.09C365.6 655.242 374.96 698.522 375.493 704.341L373.661 704.152C372.185 701.817 362.192 657.175 361.738 652.628Z"/>
	<path fill="#FEFEFE" d="M61.2866 779.606C52.521 736.305 54.2668 690.837 54.3348 646.828C54.3783 618.632 53.5867 589.613 57.0394 561.597C58.4945 549.79 60.6589 536.954 66.2082 526.344C71.7584 515.733 79.7781 509.569 89.1815 502.667C104.545 491.391 110.547 474.771 114.343 456.68C119.64 431.437 117.646 405.851 117.355 380.294C116.829 333.993 131.256 284.795 154.7 245.02Q156.211 242.398 157.786 239.815Q159.362 237.232 161.002 234.69Q162.641 232.147 164.344 229.645Q166.047 227.144 167.811 224.686Q169.575 222.228 171.401 219.815Q173.226 217.402 175.11 215.035Q176.995 212.668 178.938 210.349Q180.882 208.029 182.882 205.759Q184.883 203.489 186.939 201.27Q188.996 199.051 191.107 196.883Q193.218 194.716 195.383 192.602Q197.547 190.488 199.764 188.428Q201.98 186.369 204.248 184.365Q206.515 182.362 208.832 180.415Q211.148 178.469 213.513 176.581Q215.877 174.693 218.288 172.864Q220.698 171.036 223.154 169.268Q225.61 167.501 228.109 165.795Q230.608 164.089 233.148 162.446Q235.689 160.803 238.27 159.223Q240.851 157.644 243.47 156.13Q246.09 154.616 248.746 153.167Q251.402 151.719 254.094 150.337Q256.786 148.955 259.511 147.641Q262.237 146.326 264.994 145.08Q267.751 143.835 270.539 142.658Q273.326 141.481 276.142 140.374Q278.958 139.268 281.801 138.231Q284.644 137.195 287.511 136.23Q290.379 135.265 293.27 134.372Q296.161 133.479 299.073 132.658Q301.985 131.837 304.917 131.089C335.937 123.099 366.965 123.985 398.704 124.008L471.014 124.019L515.596 124.039C524.81 124.051 534.348 123.565 543.489 124.725Q546.472 125.074 549.402 125.737Q552.331 126.401 555.174 127.371Q558.016 128.341 560.74 129.608Q563.463 130.875 566.037 132.423C601.015 153.395 614.218 204.353 623.424 241.416L616.362 242.592C614.822 242.775 613.06 243.199 611.575 242.757C611.299 235.285 611.499 227.811 611.281 220.343C599.521 220.384 587.748 220.308 575.989 220.474L576.001 243.998C566.333 241.203 556.629 238.037 546.803 235.865C540.092 257.223 532.652 278.366 525.854 299.706C505.552 299.266 486.072 299.786 466.285 304.868C460.823 293.174 455.839 281.29 450.584 269.505C447.257 262.045 443.62 254.704 440.455 247.176C433.031 249.902 425.751 252.995 418.392 255.889C413.518 257.806 408.176 259.469 403.552 261.876C404.712 266.038 407.017 270.512 407.62 274.698C408.967 284.033 407.737 299.493 407.752 309.403L407.741 396.613C400.927 396.689 389.927 397.851 383.658 396.14L382.705 396.386L382.623 288.073L382.639 256.442C382.637 250.181 382.387 243.836 382.908 237.595L383.063 237.446L382.762 236.946L378.99 236.551Q365.05 236.305 351.109 236.416C351.163 229.461 351.642 222.262 351.25 215.331C338.774 214.587 326.079 215.012 313.576 215.028C313.686 224.568 314.027 234.123 313.938 243.662Q298.769 243.749 283.6 243.68L283.336 262.601C272.007 257.765 260.261 253.934 248.95 249.044C245.468 256.402 242.557 264.03 239.327 271.501Q224.915 304.581 211.42 338.046C204.597 354.525 196.098 370.977 190.559 387.888C197.311 390.863 204.08 393.9 211.001 396.46C203.428 396.634 148.301 395.376 145.701 397.018C154.545 398.551 164.509 397.689 173.502 397.684L225.75 397.681L348.167 397.922C372.298 397.913 396.487 398.43 420.599 397.422C418.765 401.872 418.111 406.843 420.109 411.378C421.648 414.873 424.055 416.74 427 418.965L260.187 418.712L184.767 418.867C173.324 418.905 161.666 418.412 150.255 418.816C148.34 418.884 145.963 419.043 144.203 419.833C156.554 420.849 169.472 420.108 181.883 420.071L251.693 419.957L398.446 420.01Q410.724 419.97 423.001 420.114C428.087 420.223 433.179 420.677 438.265 420.619C444.223 433.503 448.311 450.705 458.369 460.557C461.633 463.755 465.687 465.656 468.983 468.624C471.506 472.533 474.13 476.267 476.99 479.937Q477.134 499.041 477.491 518.143C439.815 518.187 406.709 514.002 377.35 543.275C371.445 549.163 366.384 555.653 362.388 562.985C355.622 575.398 351.219 589.483 345.913 602.607Q331.218 638.054 317.266 673.8C293.25 673.728 269.212 674.039 245.2 673.743C248.404 667.4 251.413 661.509 249.146 654.263C247.874 650.197 245.432 646.306 243.511 642.506C238.958 633.497 237.468 623.192 242.33 613.91Q242.65 613.307 243.001 612.721Q243.352 612.134 243.732 611.567Q244.112 610.999 244.521 610.452Q244.93 609.905 245.366 609.379Q245.802 608.853 246.264 608.35Q246.726 607.847 247.214 607.369Q247.701 606.89 248.212 606.437Q248.723 605.984 249.257 605.557Q249.791 605.131 250.345 604.732Q250.9 604.334 251.474 603.964Q252.049 603.594 252.641 603.254Q253.234 602.914 253.843 602.604Q254.452 602.295 255.076 602.017Q255.7 601.739 256.337 601.494Q256.975 601.248 257.624 601.035Q258.273 600.822 258.932 600.643C263.435 599.384 268.209 599.229 272.792 598.346C282.383 596.499 291.255 589.746 296.224 581.419Q296.685 580.657 297.108 579.872Q297.531 579.088 297.915 578.284Q298.299 577.479 298.642 576.657Q298.986 575.835 299.288 574.997Q299.591 574.159 299.852 573.307Q300.113 572.455 300.331 571.591Q300.55 570.727 300.725 569.853Q300.901 568.98 301.033 568.098Q301.165 567.217 301.254 566.33Q301.342 565.444 301.387 564.554Q301.432 563.664 301.432 562.773Q301.433 561.882 301.39 560.992Q301.347 560.102 301.259 559.215Q301.172 558.328 301.041 557.447Q300.911 556.565 300.736 555.691Q300.562 554.817 300.345 553.953C297.652 543.593 291.196 535.837 283.603 528.594C280.426 525.563 276.96 522.472 274.733 518.635C272.405 514.624 274.535 509.796 272.625 506.418C271.287 506.579 271.335 506.494 270.489 507.53C269.588 511.866 270.746 517.919 273.245 521.602C275.591 525.059 279.41 528.211 282.404 531.147C292.952 541.491 300.581 552.387 298.253 567.894Q298.124 568.726 297.954 569.55Q297.784 570.374 297.573 571.189Q297.362 572.003 297.11 572.806Q296.858 573.609 296.567 574.399Q296.275 575.188 295.945 575.962Q295.614 576.736 295.245 577.493Q294.876 578.249 294.469 578.986Q294.063 579.723 293.62 580.438Q293.177 581.154 292.699 581.847Q292.221 582.539 291.709 583.207Q291.196 583.875 290.651 584.516Q290.106 585.157 289.53 585.77Q288.954 586.384 288.347 586.967Q287.741 587.551 287.106 588.103Q286.471 588.656 285.81 589.176Q285.148 589.696 284.461 590.182C271.721 599.316 254.804 594.471 243.826 607.082C240.241 611.201 238.057 616.544 237.158 621.9C234.191 639.586 249.413 650.834 247.101 662.633C246.299 666.725 243.914 670.308 241.757 673.803L221.349 673.654L221.298 586.766C221.107 558.571 220.548 530.197 221.21 502.013Q214.38 501.951 207.549 501.968L207.509 479.554L171.51 479.556C171.473 486.612 172.096 494.369 171.203 501.336L171.57 502.632L171.399 673.617C160.756 673.654 149.337 674.548 138.779 673.453L137.847 673.25C134.233 674.006 129.937 673.663 126.229 673.685L102.32 673.819C97.6489 673.849 92.6314 673.541 88.021 674.299L88.2104 675.084C89.8686 674.506 108.323 675.035 111.335 675.023L240.627 675.038C238.04 677.981 232.689 681.586 231.484 685.267L232.18 686.041C235.062 685.901 242.089 677.136 244.118 675.015C268.279 674.75 292.467 674.977 316.63 675.016C314.059 682.725 310.976 690.263 308.001 697.823C300.421 697.396 292.633 697.796 285.031 697.804L240.593 697.758L129.743 697.487C122.46 697.47 93.368 696.26 88.0167 697.893C89.2857 699.115 124.645 698.655 129.598 698.668L307.142 698.902C302.339 712.875 296.644 726.528 291.973 740.548C287.565 753.779 284.378 768.147 278.433 780.776C278.954 770.641 279.441 760.577 279.61 750.427L286.546 750.199C287.575 742.689 287.182 734.908 287.018 727.349C279.95 724.99 275.599 717.391 269.541 713.12C253.681 712.108 237.424 712.649 221.521 712.481C214.12 712.404 206.584 712.48 199.227 711.614C192.126 716.769 185.857 722.728 178.471 727.576L178.514 750.06L187.483 750.07C188.551 759.977 188.698 770.04 189.558 779.982L61.2866 779.606Z"/>
	<path fill="#424143" d="M378.99 236.551C380.591 236.501 382.167 236.167 383.574 236.971C384.003 238.418 384.497 391.918 383.658 396.14L382.705 396.386L382.623 288.073L382.639 256.442C382.637 250.181 382.387 243.836 382.908 237.595L383.063 237.446L382.762 236.946L378.99 236.551Z"/>
	<path fill="#424143" d="M137.549 501.279C148.695 500.821 160.038 501.267 171.203 501.336L171.57 502.632C160.634 502.553 149.674 502.311 138.74 502.49C138.933 559.451 139.502 616.5 138.779 673.453L137.847 673.25C136.503 668.087 137.673 641.027 137.667 632.95C137.632 589.079 138.164 545.14 137.549 501.279Z"/>
	<path fill="#FEFEFE" d="M138.74 502.49C149.674 502.311 160.634 502.553 171.57 502.632L171.399 673.617C160.756 673.654 149.337 674.548 138.779 673.453C139.502 616.5 138.933 559.451 138.74 502.49Z"/>
</svg>
